<svg id="Art_Board_1" data-name="Art Board 1" xmlns="http://www.w3.org/2000/svg" xmlns:xlink="http://www.w3.org/1999/xlink" viewBox="0 0 612 792"><defs><style>.cls-1{fill:url(#Steel_Radial);}.cls-2{fill:url(#Steel_Radial-2);}</style><radialGradient id="Steel_Radial" cx="306" cy="396" r="66.06" gradientUnits="userSpaceOnUse"><stop offset="0" stop-color="#e5e2df"/><stop offset="0" stop-color="#f1efee"/><stop offset="0" stop-color="#fff"/><stop offset="0.13" stop-color="#f0f0f1"/><stop offset="0.37" stop-color="#c9cacb"/><stop offset="0.52" stop-color="#adaeb0"/><stop offset="0.6" stop-color="#a3a5a7"/><stop offset="0.74" stop-color="#898d90"/><stop offset="0.91" stop-color="#5f6769"/><stop offset="1" stop-color="#465053"/></radialGradient><radialGradient id="Steel_Radial-2" r="125.06" xlink:href="#Steel_Radial"/></defs><title>Vector</title><g id="Layer_1" data-name="Layer 1"><path class="cls-1" d="M366,405.26c-8.1,1.24-21.05,16.15-21.05,16.15l7,.81c-5.77,9.64-13,14.13-30.16,13.71C310.6,435.65,310,363.6,310,363.6h16.92a7.09,7.09,0,1,0-.43-7H309.94V348a11.83,11.83,0,1,0-7.88,0v8.58H285.51a7.08,7.08,0,1,0-.35,7H302s-.63,72-11.8,72.33c-17.2.42-24.39-4.07-30.16-13.71l7-.81s-12.95-14.91-21-16.15c0,0-3,17.54,2.72,24.92,0,0,4.8-4.6,5.26-4.53a59.62,59.62,0,0,0,31.29,29.17C306,463,306,467,306,467s0-3.94,20.7-12.16A59.62,59.62,0,0,0,358,425.65c.46-.07,5.26,4.53,5.26,4.53C369,422.8,366,405.26,366,405.26Zm-33.2-48.93a3.54,3.54,0,1,1-3.54,3.54A3.54,3.54,0,0,1,332.77,356.33Zm-53.5,7.18a3.54,3.54,0,1,1,3.54-3.54A3.54,3.54,0,0,1,279.27,363.51ZM306,344.74a7.89,7.89,0,1,1,7.89-7.89A7.89,7.89,0,0,1,306,344.74Z"/></g><g id="Layer_2" data-name="Layer 2"><path class="cls-2" d="M429.16,425.29,431.08,415l-23.86-6.52-.12-26.86L431,376l-1.92-9.71-25,3-10.19-24.53,20-14.73-5.76-8.62-22,12.36-18.91-18.84,13-21.25-8.52-5.75-15.6,20-24.84-10.08,3.84-25L325,271l-6.61,23.63H291.55L286,271.06l-10.44,2.1,2.87,24.57L254,307.92l-14.39-19.55-8.77,6,12.24,21.79L224.16,335l-20.83-12.73-5.76,8.61,19.68,15.51L207.16,371l-24.35-3.84-1.89,10.31,23.9,6.61.18,26.75-23.74,5.64,2.14,10.7,24.68-2.87,10.13,24.52-19.44,14.22,6,8.64,21.12-12,19,18.89-12.36,20.24,8.76,5.75,14.92-19.08,24.68,10.08-3.72,23.55L287,521l6.72-24.13h26.76l5.65,23.89,10.44-2.06-3-24.7,24.6-10.44,14.61,20,8.37-5.87-12-21.31,18.81-18.94,20.61,12.61,5.78-8.75L394.89,446l10.05-24.59ZM306,472.31A76.31,76.31,0,1,1,382.31,396,76.31,76.31,0,0,1,306,472.31Z"/></g></svg>